<svg width="10" height="6" viewBox="0 0 10 6" fill="none" xmlns="http://www.w3.org/2000/svg">
<path d="M8.97083 1.1375L4.80417 5.30417C4.74542 5.36292 4.66583 5.39583 4.58333 5.39583C4.58292 5.39583 4.5825 5.39583 4.58208 5.39583C4.49875 5.39542 4.41917 5.36208 4.36042 5.3025L2.69375 3.61C2.5725 3.48708 2.57417 3.28917 2.69709 3.16792C2.82 3.04709 3.01833 3.04834 3.13917 3.17125L4.58459 4.63958L8.52875 0.695414C8.65083 0.57333 8.84875 0.57333 8.97083 0.695414C9.09292 0.817497 9.09292 1.01583 8.97083 1.1375ZM4.58333 3.72917C4.66333 3.72917 4.74333 3.69875 4.80417 3.6375L7.30417 1.1375C7.42625 1.01542 7.42625 0.817497 7.30417 0.695414C7.18208 0.57333 6.98417 0.57333 6.86208 0.695414L4.36208 3.19541C4.24 3.3175 4.24 3.51542 4.36208 3.6375C4.42333 3.69875 4.50333 3.72917 4.58333 3.72917ZM1.4725 3.1725C1.35167 3.04958 1.15375 3.04792 1.03042 3.16917C0.907504 3.29042 0.905833 3.48792 1.02708 3.61125L2.69375 5.30292C2.75458 5.365 2.83541 5.39625 2.91625 5.39625C2.99541 5.39625 3.07458 5.36625 3.13542 5.30625C3.25833 5.185 3.26 4.9875 3.13875 4.86417L1.4725 3.1725Z" fill="#166000"/>
</svg>
