<svg width="18" height="17" viewBox="0 0 18 17" fill="none" xmlns="http://www.w3.org/2000/svg">
<path d="M0 8.50294C0.000346745 8.3543 0.0428315 8.20885 0.122462 8.08369C0.202093 7.95853 0.315559 7.85886 0.449517 7.79641L16.8953 0.0687578C17.0388 0.00375383 17.1985 -0.0157663 17.3532 0.0127902C17.5079 0.0413467 17.6504 0.116628 17.7616 0.228636C17.8729 0.340644 17.9476 0.484077 17.976 0.639884C18.0044 0.795692 17.985 0.956501 17.9204 1.10095L15.0917 7.73569L8.12969 7.72465V9.28122L15.1137 9.28122L17.9369 15.9215C17.9982 16.0651 18.0154 16.2239 17.986 16.3775C17.9567 16.531 17.8823 16.6721 17.7724 16.7826C17.6593 16.8918 17.5161 16.964 17.3614 16.9896C17.2068 17.0153 17.0481 16.9931 16.9063 16.9261L0.46048 9.19843C0.326143 9.13838 0.211528 9.04111 0.129997 8.91797C0.0484673 8.79483 0.0033839 8.65089 0 8.50294Z" fill="#002DE3"/>
</svg>
